<svg xmlns="http://www.w3.org/2000/svg" viewBox="0 0 24 24" fill="none" stroke="currentColor" stroke-width="1.75" stroke-linecap="round" stroke-linejoin="round"><path d="M12 3.5C12.4 6.8 13 8.2 17 8.5C13 8.8 12.4 10.2 12 13.5C11.6 10.2 11 8.8 7 8.5C11 8.2 11.6 6.8 12 3.5Z"/><path d="M18.5 13.5C18.7 15 19 15.6 20.5 15.8C19 16 18.7 16.6 18.5 18C18.3 16.6 18 16 16.5 15.8C18 15.6 18.3 15 18.5 13.5Z"/><path d="M6 15C6.2 16.2 6.5 16.7 7.8 16.9C6.5 17.1 6.2 17.6 6 18.8C5.8 17.6 5.5 17.1 4.2 16.9C5.5 16.7 5.8 16.2 6 15Z"/></svg>
