<svg xmlns="http://www.w3.org/2000/svg" viewBox="0 0 24 24" fill="none" stroke="currentColor" stroke-width="1.75" stroke-linecap="round" stroke-linejoin="round"><path d="M3 9.5L4.2 4.5H19.8L21 9.5"/><path d="M3 9.5C3 10.6 3.9 11.5 5 11.5C6.1 11.5 7 10.6 7 9.5C7 10.6 7.9 11.5 9 11.5C10.1 11.5 11 10.6 11 9.5C11 10.6 11.9 11.5 13 11.5C14.1 11.5 15 10.6 15 9.5C15 10.6 15.9 11.5 17 11.5C18.1 11.5 19 10.6 19 9.5C19 10.6 19.9 11.5 21 11.5"/><path d="M4.5 11.5V19.5H19.5V11.5"/><path d="M9.5 19.5V14.5H14.5V19.5"/></svg>
